<svg width="2114" height="89" viewBox="0 0 2114 89" fill="none" xmlns="http://www.w3.org/2000/svg">
<path d="M0 45.1853L50.3543 47.6042C100.709 50.2057 201.124 54.7697 302.419 54.9067C402.688 54.7697 503.543 50.2057 603.371 37.8828C704.667 25.5599 805.963 6.39096 905.79 1.37052C1006.65 -3.64992 1106.91 6.39096 1208.21 11.0919C1308.62 15.9754 1409.33 15.9754 1510.63 28.1614C1610.6 40.1648 1711.75 64.8106 1811.58 64.6737C1912.73 64.8106 2012.7 40.1648 2064.09 28.1614L2114 15.9754V89H2063.65C2013.29 89 1912.88 89 1811.58 89C1711.31 89 1610.46 89 1510.63 89C1409.33 89 1308.04 89 1208.21 89C1107.35 89 1007.09 89 905.79 89C805.375 89 704.667 89 603.371 89C503.396 89 402.247 89 302.419 89C201.27 89 101.296 89 49.9139 89H0V45.1853Z" fill="#151515"/>
</svg>
