<svg width="45" height="43" viewBox="0 0 45 43" fill="none" xmlns="http://www.w3.org/2000/svg">
<path id="Exclude" fill-rule="evenodd" clip-rule="evenodd" d="M37.2892 0.253453C37.7 0.528028 38.9216 1.71081 39.1703 2.08043C39.2676 2.21772 39.3108 2.42893 39.2676 2.56622C39.2135 2.77743 23.6351 18.1114 23.2027 18.386C22.9757 18.5127 22.0459 18.5021 21.7649 18.3648C21.6351 18.3015 17.9595 14.7742 13.6135 10.5183C6.06757 3.16817 5.68919 2.77743 5.68919 2.41837C5.68919 2.09099 5.7973 1.94314 6.5973 1.18278C7.36486 0.454104 7.55946 0.316816 7.86216 0.316816C8.18648 0.316816 8.60811 0.696998 12.8459 4.82618C15.1385 7.06566 17.0732 8.94702 17.4656 9.32864L17.5378 9.39891C17.5703 9.42003 19.7108 7.37128 22.3162 4.83674C24.9108 2.3022 27.1378 0.179529 27.2568 0.116166C27.3973 0.0422416 29.0081 0.0105604 32.1865 0H36.9L37.2892 0.253453ZM3.81892 5.61822C5.97027 7.61417 19.1703 20.6354 19.2784 20.8782C19.354 21.0367 19.4081 21.3112 19.4081 21.4908C19.4081 21.6597 19.354 21.9343 19.2784 22.0927C19.2027 22.2617 16.6297 24.849 13.5595 27.8482L12.5974 28.789C3.55725 37.6294 3.27477 37.9056 2.98562 37.9124C2.97629 37.9126 2.96696 37.9126 2.95733 37.9125L2.94324 37.9124C2.7054 37.9124 2.43513 37.7224 1.74324 37.057C0.802702 36.17 0.629729 35.8531 0.835134 35.4518C0.91081 35.3251 2.9973 33.2341 5.48378 30.8157C7.98108 28.3868 10.0135 26.3486 10.0135 26.2747C10.0135 26.2008 7.87297 24.0464 5.25676 21.4908L0.5 16.8335V7.13895L1.55946 6.10401C2.84594 4.8473 2.94324 4.82618 3.81892 5.61822ZM43.1486 5.90336C43.6135 6.36802 44.0351 6.82213 44.0892 6.91717C44.3378 7.35016 44.0676 7.65641 39.473 12.1447C36.9432 14.6053 34.8784 16.6751 34.8784 16.7385C34.8784 16.7913 36.9757 18.8929 39.5378 21.3852C42.1649 23.9408 44.2622 26.074 44.3486 26.2641C44.4676 26.5387 44.5 27.4469 44.5 30.9108C44.5 33.4242 44.4568 35.3779 44.3919 35.5997C44.3162 35.8531 43.9811 36.265 43.2676 36.9409C42.2622 37.9124 41.9811 38.0603 41.5919 37.8174C41.5054 37.7646 37.8946 34.2585 33.5595 30.0237L33.0638 29.5401C26.1422 22.7879 25.4332 22.0962 25.4706 21.4455C25.4749 21.3713 25.4889 21.2976 25.5045 21.2155C25.5083 21.1952 25.5123 21.1743 25.5162 21.1528C25.5919 20.7938 26.4243 19.9384 33.6135 12.905C40.7486 5.93504 41.6676 5.06907 41.9703 5.06907C42.2405 5.06907 42.4568 5.22748 43.1486 5.90336ZM22.8892 24.5005C23.2135 24.585 24.8135 26.0952 31.1811 32.2942C35.527 36.5185 39.127 40.0985 39.1919 40.2569C39.3541 40.6899 39.2135 40.9328 38.2514 41.841C37.5811 42.4852 37.3216 42.6647 37.0838 42.6647C36.8135 42.6647 36.0784 41.9994 32.1 38.1237C29.5378 35.6208 27.3973 33.5826 27.3432 33.5826C27.3 33.5826 25.1595 35.6314 22.6081 38.1342C20.0459 40.6371 17.8297 42.7492 17.6676 42.8337C17.2351 43.0554 8.1973 43.0554 7.76486 42.8337C7.6027 42.7492 7.07297 42.2845 6.58649 41.7882C5.80811 41.0173 5.68919 40.8483 5.68919 40.5315C5.68919 40.183 6.16487 39.6972 13.6351 32.4104C19.9486 26.2536 21.6676 24.6378 21.9919 24.5322L22.0341 24.519L22.0911 24.5011C22.2879 24.4391 22.3822 24.4094 22.4765 24.4091C22.5631 24.4088 22.6498 24.4332 22.8161 24.48C22.8389 24.4864 22.8633 24.4933 22.8892 24.5005ZM24.446 7.70922L20.1216 11.9334L21.2568 13.0423C21.873 13.6548 22.4243 14.1512 22.4784 14.1512C22.6081 14.1512 33.2568 3.73844 33.2568 3.60116C33.2568 3.51667 32.6189 3.48499 31.0189 3.48499H28.7811L24.446 7.70922ZM3.95941 13.1374C3.95941 11.9757 3.99184 10.983 4.03509 10.9513C4.06752 10.9091 4.17563 10.9408 4.27293 11.0147C4.56482 11.247 14.9864 21.438 14.9864 21.5013C14.9864 21.6069 12.7918 23.6557 12.6729 23.6557C12.6081 23.6557 10.6189 21.7653 8.2513 19.4526L3.95941 15.2495V13.1374ZM31.0621 20.3608C30.4891 20.9205 30.0135 21.438 30.0135 21.4908C30.0135 21.5541 32.4351 23.9619 35.4081 26.8661C39.5378 30.9002 40.8135 32.083 40.8675 31.9457C40.9 31.8507 40.9324 30.858 40.9324 29.7491V27.7321L36.6405 23.529C34.2729 21.2162 32.2946 19.3259 32.2297 19.3259C32.1648 19.3259 31.6459 19.7905 31.0621 20.3608ZM11.6999 39.4015C11.6675 39.3592 14.0567 36.962 17.0189 34.079C19.9702 31.1959 22.4351 28.8303 22.4999 28.8303C22.608 28.8303 24.7162 30.9213 24.7162 31.0375C24.7162 31.0798 22.781 32.9912 20.4135 35.304L16.1108 39.4965H13.9378C12.7378 39.4965 11.7324 39.4543 11.6999 39.4015Z" fill="#E74E1C"/>
</svg>
