<svg width="162" height="39" viewBox="0 0 162 39" fill="none" xmlns="http://www.w3.org/2000/svg">
<path fill-rule="evenodd" clip-rule="evenodd" d="M31.7725 0.223982C32.1273 0.466629 33.1823 1.51188 33.3971 1.83852C33.4811 1.95985 33.5184 2.1465 33.4811 2.26782C33.4344 2.45447 19.9803 16.0054 19.6069 16.2481C19.4108 16.36 18.6079 16.3507 18.3651 16.2294C18.2531 16.1734 15.0786 13.0563 11.3253 9.29527C4.80835 2.79978 4.48157 2.45447 4.48157 2.13716C4.48157 1.84785 4.57494 1.7172 5.26585 1.04525C5.92875 0.401301 6.09681 0.279977 6.35823 0.279977C6.63833 0.279977 7.00246 0.615951 10.6624 4.265C12.6423 6.24407 14.3132 7.90667 14.6521 8.24392L14.7145 8.30601C14.7425 8.32468 16.5912 6.51415 18.8413 4.27433C21.0821 2.03451 23.0054 0.158654 23.1081 0.102658C23.2295 0.0373298 24.6206 0.00933244 27.3656 0H31.4364L31.7725 0.223982ZM2.86634 4.96494C4.72432 6.7288 16.1243 18.2359 16.2177 18.4505C16.283 18.5905 16.3297 18.8332 16.3297 18.9918C16.3297 19.1412 16.283 19.3838 16.2177 19.5238C16.1523 19.6731 13.9302 21.9596 11.2786 24.6101L10.4478 25.4414C2.64035 33.2538 2.39639 33.498 2.14667 33.504C2.13862 33.5042 2.13056 33.5041 2.12224 33.5041L2.11007 33.504C1.90467 33.504 1.67125 33.336 1.07371 32.7481C0.261424 31.9641 0.112039 31.6842 0.289434 31.3295C0.35479 31.2175 2.15676 29.3697 4.30418 27.2325C6.46093 25.086 8.21622 23.2848 8.21622 23.2195C8.21622 23.1542 6.36757 21.2503 4.10811 18.9918L0 14.8762V6.30884L0.914987 5.39424C2.02604 4.28366 2.11007 4.265 2.86634 4.96494ZM36.8329 5.21692C37.2344 5.62756 37.5985 6.02886 37.6452 6.11285C37.86 6.49549 37.6265 6.76613 33.6585 10.7325C31.4737 12.907 29.6904 14.7362 29.6904 14.7922C29.6904 14.8388 31.5017 16.696 33.7145 18.8985C35.9833 21.157 37.7946 23.0422 37.8693 23.2102C37.972 23.4528 38 24.2554 38 27.3165C38 29.5377 37.9627 31.2642 37.9066 31.4602C37.8413 31.6842 37.5518 32.0481 36.9356 32.6454C36.0673 33.504 35.8246 33.6347 35.4885 33.42C35.4138 33.3734 32.2953 30.2749 28.5513 26.5326L28.1233 26.1052C22.1456 20.1381 21.5332 19.5269 21.5656 18.9519C21.5692 18.8863 21.5813 18.8211 21.5948 18.7486C21.5981 18.7306 21.6015 18.7122 21.6049 18.6932C21.6703 18.3759 22.3892 17.6199 28.598 11.4044C34.7602 5.24492 35.5538 4.47965 35.8152 4.47965C36.0486 4.47965 36.2354 4.61964 36.8329 5.21692ZM19.3361 21.6516C19.6162 21.7263 20.998 23.0608 26.4973 28.5391C30.2506 32.2721 33.3597 35.4359 33.4157 35.5759C33.5558 35.9585 33.4344 36.1731 32.6034 36.9757C32.0246 37.545 31.8005 37.7037 31.5951 37.7037C31.3617 37.7037 30.7268 37.1157 27.2909 33.6907C25.0781 31.4788 23.2295 29.6777 23.1828 29.6777C23.1455 29.6777 21.2968 31.4882 19.0934 33.7C16.8806 35.9118 14.9666 37.7784 14.8265 37.853C14.4531 38.049 6.64767 38.049 6.2742 37.853C6.13415 37.7784 5.67666 37.3677 5.25651 36.9291C4.58428 36.2478 4.48157 36.0985 4.48157 35.8185C4.48157 35.5105 4.89238 35.0812 11.344 28.6417C16.7966 23.2008 18.2811 21.7729 18.5612 21.6796L18.5976 21.668L18.6468 21.6521C18.8169 21.5974 18.8982 21.5711 18.9797 21.5708C19.0545 21.5706 19.1294 21.5921 19.273 21.6335C19.2927 21.6392 19.3137 21.6452 19.3361 21.6516ZM20.6806 6.8128L16.946 10.5458L17.9263 11.5258C18.4585 12.067 18.9347 12.5057 18.9813 12.5057C19.0934 12.5057 28.2899 3.30374 28.2899 3.18242C28.2899 3.10776 27.7391 3.07976 26.3573 3.07976H24.4246L20.6806 6.8128ZM2.98767 11.6098C2.98767 10.5832 3.01568 9.70592 3.05303 9.67792C3.08104 9.64059 3.17441 9.66859 3.25844 9.73391C3.51052 9.93923 12.511 18.9452 12.511 19.0012C12.511 19.0945 10.6157 20.905 10.513 20.905C10.457 20.905 8.73903 19.2345 6.69431 17.1907L2.98767 13.4763V11.6098ZM26.3946 17.9933C25.8997 18.4879 25.4889 18.9452 25.4889 18.9918C25.4889 19.0478 27.5803 21.1757 30.1479 23.7421C33.7145 27.3072 34.8162 28.3524 34.8629 28.2311C34.8909 28.1471 34.9189 27.2699 34.9189 26.2899V24.5074L31.2123 20.793C29.1675 18.7492 27.4589 17.0787 27.4029 17.0787C27.3469 17.0787 26.8987 17.4893 26.3946 17.9933ZM9.67268 34.8199C9.64467 34.7826 11.7081 32.6641 14.2663 30.1163C16.8152 27.5685 18.9439 25.478 19 25.478C19.0933 25.478 20.914 27.3258 20.914 27.4285C20.914 27.4658 19.2427 29.155 17.198 31.1989L13.482 34.9039H11.6054C10.569 34.9039 9.70069 34.8666 9.67268 34.8199Z" fill="#E74E1C"/>
<path d="M74.6717 8.68423L66.6668 30H62.6183L54.5827 8.68423H58.3245L64.6426 26.4116L70.9913 8.68423H74.6717ZM93.0841 21.1363C93.0841 21.7702 93.0432 22.3427 92.9614 22.8538H80.0493C80.1515 24.2033 80.6525 25.287 81.5521 26.1049C82.4518 26.9228 83.5559 27.3317 84.8645 27.3317C86.7456 27.3317 88.0746 26.5445 88.8516 24.9701H92.6241C92.1129 26.524 91.1826 27.802 89.8331 28.8039C88.504 29.7853 86.8478 30.276 84.8645 30.276C83.2492 30.276 81.7975 29.9182 80.5093 29.2026C79.2416 28.4665 78.2397 27.4442 77.5037 26.1356C76.788 24.8065 76.4302 23.273 76.4302 21.535C76.4302 19.7971 76.7778 18.2738 77.473 16.9652C78.1886 15.6361 79.1803 14.6138 80.448 13.8982C81.7361 13.1825 83.2083 12.8247 84.8645 12.8247C86.4594 12.8247 87.8804 13.1723 89.1277 13.8675C90.3749 14.5627 91.3461 15.5441 92.0413 16.8118C92.7365 18.0591 93.0841 19.5006 93.0841 21.1363ZM89.4344 20.0322C89.4139 18.744 88.9539 17.7115 88.0542 16.9345C87.1545 16.1575 86.0402 15.769 84.7112 15.769C83.5048 15.769 82.4722 16.1575 81.6135 16.9345C80.7547 17.691 80.2435 18.7236 80.08 20.0322H89.4344ZM100.021 7.30407V30H96.5249V7.30407H100.021ZM111.942 30.276C110.347 30.276 108.906 29.9182 107.617 29.2026C106.329 28.4665 105.317 27.4442 104.581 26.1356C103.845 24.8065 103.477 23.273 103.477 21.535C103.477 19.8175 103.855 18.2942 104.612 16.9652C105.368 15.6361 106.401 14.6138 107.709 13.8982C109.018 13.1825 110.48 12.8247 112.095 12.8247C113.711 12.8247 115.173 13.1825 116.481 13.8982C117.79 14.6138 118.822 15.6361 119.579 16.9652C120.335 18.2942 120.714 19.8175 120.714 21.535C120.714 23.2526 120.325 24.7758 119.548 26.1049C118.771 27.4339 117.708 28.4665 116.358 29.2026C115.029 29.9182 113.557 30.276 111.942 30.276ZM111.942 27.2397C112.842 27.2397 113.68 27.025 114.457 26.5956C115.254 26.1662 115.898 25.5222 116.389 24.6634C116.88 23.8046 117.125 22.7618 117.125 21.535C117.125 20.3082 116.89 19.2757 116.42 18.4373C115.95 17.5786 115.326 16.9345 114.549 16.5051C113.772 16.0757 112.934 15.861 112.034 15.861C111.134 15.861 110.296 16.0757 109.519 16.5051C108.762 16.9345 108.159 17.5786 107.709 18.4373C107.26 19.2757 107.035 20.3082 107.035 21.535C107.035 23.3548 107.495 24.7656 108.415 25.7675C109.355 26.749 110.531 27.2397 111.942 27.2397ZM127.666 15.585C128.259 14.808 129.067 14.1537 130.089 13.6221C131.112 13.0905 132.267 12.8247 133.555 12.8247C135.027 12.8247 136.367 13.1927 137.573 13.9288C138.8 14.6445 139.761 15.6566 140.456 16.9652C141.151 18.2738 141.499 19.7766 141.499 21.4737C141.499 23.1708 141.151 24.6941 140.456 26.0435C139.761 27.3726 138.8 28.4154 137.573 29.1719C136.367 29.908 135.027 30.276 133.555 30.276C132.267 30.276 131.122 30.0204 130.12 29.5093C129.118 28.9777 128.3 28.3234 127.666 27.5464V38.0356H124.17V13.1007H127.666V15.585ZM137.941 21.4737C137.941 20.3082 137.696 19.3063 137.205 18.468C136.735 17.6092 136.101 16.9652 135.303 16.5358C134.526 16.086 133.688 15.861 132.788 15.861C131.909 15.861 131.071 16.086 130.273 16.5358C129.496 16.9856 128.863 17.6399 128.372 18.4987C127.902 19.3574 127.666 20.3696 127.666 21.535C127.666 22.7005 127.902 23.7228 128.372 24.602C128.863 25.4608 129.496 26.1151 130.273 26.5649C131.071 27.0148 131.909 27.2397 132.788 27.2397C133.688 27.2397 134.526 27.0148 135.303 26.5649C136.101 26.0947 136.735 25.4199 137.205 24.5407C137.696 23.6615 137.941 22.6392 137.941 21.4737ZM160.445 21.1363C160.445 21.7702 160.404 22.3427 160.322 22.8538H147.41C147.512 24.2033 148.013 25.287 148.913 26.1049C149.812 26.9228 150.916 27.3317 152.225 27.3317C154.106 27.3317 155.435 26.5445 156.212 24.9701H159.985C159.473 26.524 158.543 27.802 157.194 28.8039C155.865 29.7853 154.208 30.276 152.225 30.276C150.61 30.276 149.158 29.9182 147.87 29.2026C146.602 28.4665 145.6 27.4442 144.864 26.1356C144.149 24.8065 143.791 23.273 143.791 21.535C143.791 19.7971 144.138 18.2738 144.834 16.9652C145.549 15.6361 146.541 14.6138 147.809 13.8982C149.097 13.1825 150.569 12.8247 152.225 12.8247C153.82 12.8247 155.241 13.1723 156.488 13.8675C157.735 14.5627 158.707 15.5441 159.402 16.8118C160.097 18.0591 160.445 19.5006 160.445 21.1363ZM156.795 20.0322C156.774 18.744 156.314 17.7115 155.415 16.9345C154.515 16.1575 153.401 15.769 152.072 15.769C150.865 15.769 149.833 16.1575 148.974 16.9345C148.115 17.691 147.604 18.7236 147.441 20.0322H156.795Z" fill="white"/>
</svg>
