<svg width="48" height="50" viewBox="0 0 48 50" fill="none" xmlns="http://www.w3.org/2000/svg">
<rect x="1" y="1.75867" width="46" height="46.4286" stroke="#E74E1C" stroke-width="2"/>
<path d="M21.833 33.9107L12 37.1873L15.2782 27.3558M21.833 33.9107L34.6456 20.6707C35.2927 20.0221 35.7332 19.1963 35.9115 18.2975C36.0897 17.3987 35.9976 16.4672 35.6469 15.6207C35.2961 14.7742 34.7025 14.0506 33.9408 13.5412C33.1792 13.0318 32.2837 12.7595 31.3674 12.7587C30.138 12.7591 28.9591 13.2472 28.0892 14.1159L15.2782 27.3558M21.833 33.9107L15.2782 27.3558M18.5548 30.634L28.0723 20.6707M24.8523 17.46L31.3628 23.9551" stroke="#E74E1C" stroke-width="2.2978" stroke-linecap="round" stroke-linejoin="round"/>
</svg>
