<svg width="46" height="52" viewBox="0 0 46 52" fill="none" xmlns="http://www.w3.org/2000/svg">
<rect x="1" y="1.75867" width="43.336" height="48.67" stroke="#E74E1C" stroke-width="2"/>
<path d="M22.668 26.0937C21.2011 26.0937 20.001 24.8935 20.001 23.4267C20.001 21.9598 21.2011 20.7597 22.668 20.7597C24.1349 20.7597 25.335 21.9598 25.335 23.4267C25.335 24.8935 24.1349 26.0937 22.668 26.0937ZM30.669 23.6934C30.669 18.8528 27.1352 15.4257 22.668 15.4257C18.2008 15.4257 14.667 18.8528 14.667 23.6934C14.667 26.8138 17.2673 30.9476 22.668 35.8816C28.0687 30.9476 30.669 26.8138 30.669 23.6934ZM22.668 12.7587C28.2687 12.7587 33.336 17.0525 33.336 23.6934C33.336 28.1206 29.7756 33.3612 22.668 39.4287C15.5604 33.3612 12 28.1206 12 23.6934C12 17.0525 17.0673 12.7587 22.668 12.7587Z" fill="#E74E1C"/>
</svg>
