<svg width="48" height="49" viewBox="0 0 48 49" fill="none" xmlns="http://www.w3.org/2000/svg">
<rect x="1" y="1.75867" width="46" height="46" stroke="#E74E1C" stroke-width="2"/>
<path d="M24 11.4254C31.364 11.4254 37.3333 17.3947 37.3333 24.7587C37.3333 32.1227 31.364 38.092 24 38.092C16.636 38.092 10.6666 32.1227 10.6666 24.7587C10.6666 17.3947 16.636 11.4254 24 11.4254ZM24 14.092C21.171 14.092 18.4579 15.2158 16.4575 17.2162C14.4571 19.2166 13.3333 21.9297 13.3333 24.7587C13.3333 27.5877 14.4571 30.3008 16.4575 32.3012C18.4579 34.3015 21.171 35.4254 24 35.4254C26.8289 35.4254 29.542 34.3015 31.5424 32.3012C33.5428 30.3008 34.6666 27.5877 34.6666 24.7587C34.6666 21.9297 33.5428 19.2166 31.5424 17.2162C29.542 15.2158 26.8289 14.092 24 14.092ZM24 16.7587C24.3265 16.7587 24.6417 16.8786 24.8858 17.0956C25.1298 17.3127 25.2857 17.6117 25.324 17.936L25.3333 18.092V24.2067L28.9426 27.816C29.1818 28.056 29.3206 28.3779 29.3309 28.7165C29.3413 29.0551 29.2223 29.385 28.9983 29.6391C28.7742 29.8931 28.4619 30.0524 28.1247 30.0846C27.7874 30.1167 27.4506 30.0192 27.1826 29.812L27.0573 29.7014L23.0573 25.7014C22.8501 25.4939 22.717 25.224 22.6786 24.9334L22.6666 24.7587V18.092C22.6666 17.7384 22.8071 17.3993 23.0571 17.1492C23.3072 16.8992 23.6463 16.7587 24 16.7587Z" fill="#E74E1C"/>
</svg>
